<mxfile host="Electron" modified="2024-03-20T16:18:34.543Z" agent="Mozilla/5.0 (Windows NT 10.0; Win64; x64) AppleWebKit/537.36 (KHTML, like Gecko) draw.io/24.0.4 Chrome/120.0.6099.109 Electron/28.1.0 Safari/537.36" etag="oaLx2jIh8yhhIhH7zM7Q" version="24.0.4" type="device">
  <diagram name="Pagina-1" id="9Hx1glb1ToDueiiUKnTw">
    <mxGraphModel dx="880" dy="532" grid="1" gridSize="10" guides="1" tooltips="1" connect="1" arrows="1" fold="1" page="1" pageScale="1" pageWidth="827" pageHeight="1169" math="0" shadow="0">
      <root>
        <mxCell id="0" />
        <mxCell id="1" parent="0" />
        <mxCell id="PRRc5L6BMGI-GcEW0Ikc-8" style="edgeStyle=orthogonalEdgeStyle;rounded=0;orthogonalLoop=1;jettySize=auto;html=1;" parent="1" source="PRRc5L6BMGI-GcEW0Ikc-1" target="PRRc5L6BMGI-GcEW0Ikc-5" edge="1">
          <mxGeometry relative="1" as="geometry" />
        </mxCell>
        <mxCell id="PRRc5L6BMGI-GcEW0Ikc-9" style="edgeStyle=orthogonalEdgeStyle;rounded=0;orthogonalLoop=1;jettySize=auto;html=1;entryX=0;entryY=0.5;entryDx=0;entryDy=0;" parent="1" source="PRRc5L6BMGI-GcEW0Ikc-1" target="PRRc5L6BMGI-GcEW0Ikc-6" edge="1">
          <mxGeometry relative="1" as="geometry" />
        </mxCell>
        <mxCell id="3FYTxoua-JjZdqb0VUhW-1" style="edgeStyle=orthogonalEdgeStyle;rounded=0;orthogonalLoop=1;jettySize=auto;html=1;entryX=0;entryY=0.5;entryDx=0;entryDy=0;" edge="1" parent="1" source="PRRc5L6BMGI-GcEW0Ikc-1" target="PRRc5L6BMGI-GcEW0Ikc-23">
          <mxGeometry relative="1" as="geometry" />
        </mxCell>
        <mxCell id="3FYTxoua-JjZdqb0VUhW-2" style="edgeStyle=orthogonalEdgeStyle;rounded=0;orthogonalLoop=1;jettySize=auto;html=1;entryX=0;entryY=0.5;entryDx=0;entryDy=0;" edge="1" parent="1" source="PRRc5L6BMGI-GcEW0Ikc-1" target="PRRc5L6BMGI-GcEW0Ikc-24">
          <mxGeometry relative="1" as="geometry" />
        </mxCell>
        <mxCell id="PRRc5L6BMGI-GcEW0Ikc-1" value="Prestito" style="rounded=0;whiteSpace=wrap;html=1;" parent="1" vertex="1">
          <mxGeometry x="400" y="250" width="120" height="60" as="geometry" />
        </mxCell>
        <mxCell id="PRRc5L6BMGI-GcEW0Ikc-10" style="edgeStyle=orthogonalEdgeStyle;rounded=0;orthogonalLoop=1;jettySize=auto;html=1;entryX=1;entryY=0.5;entryDx=0;entryDy=0;endArrow=doubleBlock;endFill=1;" parent="1" source="PRRc5L6BMGI-GcEW0Ikc-2" target="PRRc5L6BMGI-GcEW0Ikc-6" edge="1">
          <mxGeometry relative="1" as="geometry" />
        </mxCell>
        <mxCell id="PRRc5L6BMGI-GcEW0Ikc-36" style="edgeStyle=orthogonalEdgeStyle;rounded=0;orthogonalLoop=1;jettySize=auto;html=1;entryX=0;entryY=0.5;entryDx=0;entryDy=0;" parent="1" source="PRRc5L6BMGI-GcEW0Ikc-2" target="PRRc5L6BMGI-GcEW0Ikc-27" edge="1">
          <mxGeometry relative="1" as="geometry" />
        </mxCell>
        <mxCell id="PRRc5L6BMGI-GcEW0Ikc-37" style="edgeStyle=orthogonalEdgeStyle;rounded=0;orthogonalLoop=1;jettySize=auto;html=1;entryX=0;entryY=0.5;entryDx=0;entryDy=0;" parent="1" source="PRRc5L6BMGI-GcEW0Ikc-2" target="PRRc5L6BMGI-GcEW0Ikc-26" edge="1">
          <mxGeometry relative="1" as="geometry" />
        </mxCell>
        <mxCell id="PRRc5L6BMGI-GcEW0Ikc-38" style="edgeStyle=orthogonalEdgeStyle;rounded=0;orthogonalLoop=1;jettySize=auto;html=1;entryX=0;entryY=0.5;entryDx=0;entryDy=0;" parent="1" source="PRRc5L6BMGI-GcEW0Ikc-2" target="PRRc5L6BMGI-GcEW0Ikc-25" edge="1">
          <mxGeometry relative="1" as="geometry" />
        </mxCell>
        <mxCell id="PRRc5L6BMGI-GcEW0Ikc-2" value="Libro" style="rounded=0;whiteSpace=wrap;html=1;" parent="1" vertex="1">
          <mxGeometry x="760" y="250" width="120" height="60" as="geometry" />
        </mxCell>
        <mxCell id="PRRc5L6BMGI-GcEW0Ikc-7" style="edgeStyle=orthogonalEdgeStyle;rounded=0;orthogonalLoop=1;jettySize=auto;html=1;endArrow=doubleBlock;endFill=1;" parent="1" source="PRRc5L6BMGI-GcEW0Ikc-3" target="PRRc5L6BMGI-GcEW0Ikc-5" edge="1">
          <mxGeometry relative="1" as="geometry" />
        </mxCell>
        <mxCell id="PRRc5L6BMGI-GcEW0Ikc-20" style="edgeStyle=orthogonalEdgeStyle;rounded=0;orthogonalLoop=1;jettySize=auto;html=1;exitX=0.5;exitY=1;exitDx=0;exitDy=0;entryX=0;entryY=0.5;entryDx=0;entryDy=0;" parent="1" source="PRRc5L6BMGI-GcEW0Ikc-3" target="PRRc5L6BMGI-GcEW0Ikc-11" edge="1">
          <mxGeometry relative="1" as="geometry" />
        </mxCell>
        <mxCell id="PRRc5L6BMGI-GcEW0Ikc-21" style="edgeStyle=orthogonalEdgeStyle;rounded=0;orthogonalLoop=1;jettySize=auto;html=1;entryX=0;entryY=0.5;entryDx=0;entryDy=0;" parent="1" source="PRRc5L6BMGI-GcEW0Ikc-3" target="PRRc5L6BMGI-GcEW0Ikc-12" edge="1">
          <mxGeometry relative="1" as="geometry" />
        </mxCell>
        <mxCell id="PRRc5L6BMGI-GcEW0Ikc-22" style="edgeStyle=orthogonalEdgeStyle;rounded=0;orthogonalLoop=1;jettySize=auto;html=1;entryX=0;entryY=0.5;entryDx=0;entryDy=0;" parent="1" source="PRRc5L6BMGI-GcEW0Ikc-3" target="PRRc5L6BMGI-GcEW0Ikc-13" edge="1">
          <mxGeometry relative="1" as="geometry" />
        </mxCell>
        <mxCell id="PRRc5L6BMGI-GcEW0Ikc-3" value="Utente" style="rounded=0;whiteSpace=wrap;html=1;" parent="1" vertex="1">
          <mxGeometry x="40" y="250" width="120" height="60" as="geometry" />
        </mxCell>
        <mxCell id="PRRc5L6BMGI-GcEW0Ikc-5" value="Efettua" style="rhombus;whiteSpace=wrap;html=1;" parent="1" vertex="1">
          <mxGeometry x="240" y="240" width="80" height="80" as="geometry" />
        </mxCell>
        <mxCell id="PRRc5L6BMGI-GcEW0Ikc-6" value="Subisce" style="rhombus;whiteSpace=wrap;html=1;" parent="1" vertex="1">
          <mxGeometry x="600" y="240" width="80" height="80" as="geometry" />
        </mxCell>
        <mxCell id="PRRc5L6BMGI-GcEW0Ikc-11" value="" style="ellipse;whiteSpace=wrap;html=1;aspect=fixed;" parent="1" vertex="1">
          <mxGeometry x="140" y="340" width="20" height="20" as="geometry" />
        </mxCell>
        <mxCell id="PRRc5L6BMGI-GcEW0Ikc-12" value="" style="ellipse;whiteSpace=wrap;html=1;aspect=fixed;" parent="1" vertex="1">
          <mxGeometry x="140" y="370" width="20" height="20" as="geometry" />
        </mxCell>
        <mxCell id="PRRc5L6BMGI-GcEW0Ikc-13" value="" style="ellipse;whiteSpace=wrap;html=1;aspect=fixed;" parent="1" vertex="1">
          <mxGeometry x="140" y="400" width="20" height="20" as="geometry" />
        </mxCell>
        <mxCell id="PRRc5L6BMGI-GcEW0Ikc-16" value="Nome" style="text;html=1;align=center;verticalAlign=middle;resizable=0;points=[];autosize=1;strokeColor=none;fillColor=none;" parent="1" vertex="1">
          <mxGeometry x="150" y="335" width="60" height="30" as="geometry" />
        </mxCell>
        <mxCell id="PRRc5L6BMGI-GcEW0Ikc-17" value="Cognome" style="text;html=1;align=center;verticalAlign=middle;resizable=0;points=[];autosize=1;strokeColor=none;fillColor=none;" parent="1" vertex="1">
          <mxGeometry x="150" y="365" width="80" height="30" as="geometry" />
        </mxCell>
        <mxCell id="PRRc5L6BMGI-GcEW0Ikc-18" value="Email" style="text;html=1;align=center;verticalAlign=middle;resizable=0;points=[];autosize=1;strokeColor=none;fillColor=none;" parent="1" vertex="1">
          <mxGeometry x="155" y="395" width="50" height="30" as="geometry" />
        </mxCell>
        <mxCell id="PRRc5L6BMGI-GcEW0Ikc-23" value="" style="ellipse;whiteSpace=wrap;html=1;aspect=fixed;" parent="1" vertex="1">
          <mxGeometry x="500" y="340" width="20" height="20" as="geometry" />
        </mxCell>
        <mxCell id="PRRc5L6BMGI-GcEW0Ikc-24" value="" style="ellipse;whiteSpace=wrap;html=1;aspect=fixed;" parent="1" vertex="1">
          <mxGeometry x="500" y="370" width="20" height="20" as="geometry" />
        </mxCell>
        <mxCell id="PRRc5L6BMGI-GcEW0Ikc-25" value="" style="ellipse;whiteSpace=wrap;html=1;aspect=fixed;" parent="1" vertex="1">
          <mxGeometry x="860" y="400" width="20" height="20" as="geometry" />
        </mxCell>
        <mxCell id="PRRc5L6BMGI-GcEW0Ikc-26" value="" style="ellipse;whiteSpace=wrap;html=1;aspect=fixed;" parent="1" vertex="1">
          <mxGeometry x="860" y="370" width="20" height="20" as="geometry" />
        </mxCell>
        <mxCell id="PRRc5L6BMGI-GcEW0Ikc-27" value="" style="ellipse;whiteSpace=wrap;html=1;aspect=fixed;" parent="1" vertex="1">
          <mxGeometry x="860" y="340" width="20" height="20" as="geometry" />
        </mxCell>
        <mxCell id="PRRc5L6BMGI-GcEW0Ikc-29" value="DataPrestito" style="text;html=1;align=center;verticalAlign=middle;resizable=0;points=[];autosize=1;strokeColor=none;fillColor=none;" parent="1" vertex="1">
          <mxGeometry x="510" y="335" width="90" height="30" as="geometry" />
        </mxCell>
        <mxCell id="PRRc5L6BMGI-GcEW0Ikc-32" value="DataRitorno" style="text;html=1;align=center;verticalAlign=middle;resizable=0;points=[];autosize=1;strokeColor=none;fillColor=none;" parent="1" vertex="1">
          <mxGeometry x="510" y="365" width="90" height="30" as="geometry" />
        </mxCell>
        <mxCell id="PRRc5L6BMGI-GcEW0Ikc-33" value="Titolo" style="text;html=1;align=center;verticalAlign=middle;resizable=0;points=[];autosize=1;strokeColor=none;fillColor=none;" parent="1" vertex="1">
          <mxGeometry x="880" y="335" width="50" height="30" as="geometry" />
        </mxCell>
        <mxCell id="PRRc5L6BMGI-GcEW0Ikc-34" value="AnnoPubblicazione" style="text;html=1;align=center;verticalAlign=middle;resizable=0;points=[];autosize=1;strokeColor=none;fillColor=none;" parent="1" vertex="1">
          <mxGeometry x="880" y="365" width="130" height="30" as="geometry" />
        </mxCell>
        <mxCell id="PRRc5L6BMGI-GcEW0Ikc-35" value="DisponibilitÃ " style="text;html=1;align=center;verticalAlign=middle;resizable=0;points=[];autosize=1;strokeColor=none;fillColor=none;" parent="1" vertex="1">
          <mxGeometry x="880" y="395" width="90" height="30" as="geometry" />
        </mxCell>
        <mxCell id="PRRc5L6BMGI-GcEW0Ikc-39" value="" style="endArrow=none;html=1;rounded=0;" parent="1" edge="1">
          <mxGeometry width="50" height="50" relative="1" as="geometry">
            <mxPoint x="179.5" y="292.5" as="sourcePoint" />
            <mxPoint x="179.5" y="267.5" as="targetPoint" />
          </mxGeometry>
        </mxCell>
        <mxCell id="PRRc5L6BMGI-GcEW0Ikc-40" value="" style="endArrow=none;html=1;rounded=0;" parent="1" edge="1">
          <mxGeometry width="50" height="50" relative="1" as="geometry">
            <mxPoint x="740" y="292.5" as="sourcePoint" />
            <mxPoint x="740" y="267.5" as="targetPoint" />
          </mxGeometry>
        </mxCell>
      </root>
    </mxGraphModel>
  </diagram>
</mxfile>
